inDegrees=no
num_controls=7
num_derivatives=13
num_iterations=111
num_multipliers=7
num_parameters=0
num_slacks=7
num_states=26
objective=4.187373
objective_accelerations=0.299550
objective_balance=0.087453
objective_effort=0.293218
objective_height=3.445658
objective_ligament=0.061493
solver_duration=2210.993199
status=Solve_Succeeded
success=true
DataType=double
version=3
OpenSimVersion=4.4-2022-07-23-0e9fedc
endheader
time	/jointset/ground_pelvis/pelvis_tilt/value	/jointset/ground_pelvis/pelvis_tx/value	/jointset/ground_pelvis/pelvis_ty/value	/jointset/hip_l/hip_flexion_l/value	/jointset/hip_l/hip_adduction_l/value	/jointset/hip_l/hip_rotation_l/value	/jointset/back/lumbar_extension/value	/jointset/patellofemoral_l/patellar_flexion_l/value	/jointset/knee_l/knee_flexion_l/value	/jointset/knee_l/knee_adduction_l/value	/jointset/knee_l/knee_rotation_l/value	/jointset/ankle_l/ankle_angle_l/value	/jointset/subtalar_l/subtalar_angle_l/value	/jointset/ground_pelvis/pelvis_tilt/speed	/jointset/ground_pelvis/pelvis_tx/speed	/jointset/ground_pelvis/pelvis_ty/speed	/jointset/hip_l/hip_flexion_l/speed	/jointset/hip_l/hip_adduction_l/speed	/jointset/hip_l/hip_rotation_l/speed	/jointset/back/lumbar_extension/speed	/jointset/patellofemoral_l/patellar_flexion_l/speed	/jointset/knee_l/knee_flexion_l/speed	/jointset/knee_l/knee_adduction_l/speed	/jointset/knee_l/knee_rotation_l/speed	/jointset/ankle_l/ankle_angle_l/speed	/jointset/subtalar_l/subtalar_angle_l/speed	/forceset/tau_hip_flexion_l	/forceset/tau_hip_adduction_l	/forceset/tau_hip_rotation_l	/forceset/tau_knee_flexion_l	/forceset/tau_ankle_angle_l	/forceset/tau_subtalar_angle_l	/forceset/tau_lumbar_extension	lambda_cid13_p0	lambda_cid13_p1	lambda_cid13_p2	lambda_cid13_p3	lambda_cid13_p4	lambda_cid13_p5	lambda_cid14_p0	/jointset/ground_pelvis/pelvis_tilt/accel	/jointset/ground_pelvis/pelvis_tx/accel	/jointset/ground_pelvis/pelvis_ty/accel	/jointset/hip_l/hip_flexion_l/accel	/jointset/hip_l/hip_adduction_l/accel	/jointset/hip_l/hip_rotation_l/accel	/jointset/back/lumbar_extension/accel	/jointset/patellofemoral_l/patellar_flexion_l/accel	/jointset/knee_l/knee_flexion_l/accel	/jointset/knee_l/knee_adduction_l/accel	/jointset/knee_l/knee_rotation_l/accel	/jointset/ankle_l/ankle_angle_l/accel	/jointset/subtalar_l/subtalar_angle_l/accel	gamma_cid13_p0	gamma_cid13_p1	gamma_cid13_p2	gamma_cid13_p3	gamma_cid13_p4	gamma_cid13_p5	gamma_cid14_p0
0.5	-0.2226830788670837	0.04195449596377256	0.8211960306914914	0.844981385379151	-0.3036716538229555	-0.04732758836595	-0.2818054130207561	0.6641207166990114	0.6641207166990054	-0.1699765931724496	0.1745285440768388	0.2182859056394897	-0.003888592402939812	-0.1450086550732311	-0.03445500618552536	-0.3062796157057404	1.285965035136923	-0.02792385394284844	0.6104528957015478	-0.6375840014319893	1.725818260565575	1.725818260565816	-0.0113056095536049	6.053589452754415e-05	0.6989872759618423	0.1003427720689901	-0.1185509347268324	0.03616171743144589	-0.02608817074924637	-0.2345652813170511	0.01674920426781529	0.03882242408629108	0.1387409651458562	-32.59965433409535	-15.61865843891793	7.188917532839179	8.077371317788051	-608.9379766008362	-59.93187702945728	-29.73436129517359	0.151476661694728	0.1274826664842929	-0.328229649810502	-0.6888824386556528	0.4840142482529418	-0.4017684863063002	0.928729571719122	-1.009578715573567	-1.009578715573536	-0.06054131040030913	-0.01639028599511941	-0.4860962547477061	0.4925441297251478	-2.469301311377843e-07	-1.07346253699691e-06	1.366430657689077e-06	2.383340170301046e-08	-2.369415282362943e-07	-1.135009886096286e-06	-2.523647311502789e-07
0.51	-0.2241253378805866	0.04161642570744839	0.8181174415272289	0.8578043174452463	-0.3039278156657096	-0.04124328689156437	-0.2881340383122108	0.681325609531387	0.6813256095313639	-0.1700948403249024	0.1745286707457341	0.2252501283270659	-0.002861947805745218	-0.1434337360928433	-0.03315216419813213	-0.3093740778536933	1.278443260507844	-0.02332491875657156	0.6063046245483721	-0.628050870882881	1.71492319293179	1.714923192931877	-0.01231589140899613	-1.929712068607042e-05	0.6937625252828038	0.1049696220102811	-0.1226436454529267	0.03736824190362616	-0.02620571357523168	-0.236539657695848	0.01269338140684338	0.0394360347962988	0.1424666078394655	-33.99159051752832	-15.57100826548384	7.100879528777527	8.544763946318122	-611.4646848568866	-59.65843783704855	-28.75815487380041	0.161882242995655	0.1327296263307057	-0.2904880031899053	-0.8105773640351289	0.4451995088310107	-0.4370284694746989	0.9791326928402807	-1.164982218131132	-1.164982218154095	-0.1171289993754713	-0.001678181837858814	-0.5548931069139423	0.4452439244573667	-2.875829155536496e-07	-9.156777642065942e-07	1.552624872676755e-06	6.742491389058844e-08	-2.732160392150032e-07	-1.120737491266487e-06	-2.698075095359928e-07
0.52	-0.2255515711589314	0.04129159280329105	0.8150098210403061	0.8705466812872491	-0.3041385148855943	-0.03520360253664988	-0.2943646267189079	0.6984144494012571	0.6984144494012098	-0.1702223617711618	0.1745284194099707	0.2321592577813628	-0.001789537009512417	-0.1418035080410507	-0.03180753575215989	-0.3120858802377964	1.269851390318726	-0.01883132936964584	0.6015294718091302	-0.6179766244804313	1.702607668063996	1.70260766806393	-0.01316046831506713	-1.506503803257292e-05	0.6879686293064827	0.1094960118766226	-0.1267363561790325	0.03857476637576593	-0.02632325640117929	-0.2385140340746684	0.008637558545850616	0.04004964550625048	0.1461922505330795	-35.38965008741097	-15.52581554832153	7.017266667665153	9.005999631433177	-614.1021125068712	-59.45622899586126	-27.76802755680539	0.1625384759756529	0.1358399582001582	-0.2516976970405763	-0.9029015506635195	0.4629450883827135	-0.5271448035195372	1.036952742387392	-1.293670162375252	-1.293670162375246	-0.02740032053626802	0.0004227335782963392	-0.5999253142041561	0.4724521147352773	-2.771795903713878e-07	-8.177532265536743e-07	1.48946231448418e-06	7.708111210992814e-08	-2.756741367525603e-07	-1.033637750527314e-06	-2.541046786677728e-07
0.53	-0.226961188078767	0.04098039620884526	0.8118770593383057	0.8831977368913922	-0.3043047993654372	-0.02921445798915989	-0.3004919119545674	0.715372981917187	0.7153729819171074	-0.1703575780750956	0.1745283326992835	0.2390076236149015	-0.0006723786559586245	-0.1401102473499762	-0.03042616136207643	-0.3143981278576434	1.260181889398023	-0.01445150425482104	0.5962231137769342	-0.60739766195887	1.688861967557837	1.688861967557662	-0.01387744813925783	-2.05992376122439e-06	0.6816112233247071	0.1139064767162952	-0.1307411702109659	0.0396617437459873	-0.02642002297534739	-0.2406430180118327	0.004789388785163058	0.04050932152852724	0.149853578640468	-36.72965411003825	-15.4155712644803	6.913728866118892	9.44980311576869	-616.7976199159825	-59.1676002526284	-26.7729116047829	0.1741389831357987	0.1401458764386364	-0.2107938417953193	-1.025681776077993	0.4214387337492038	-0.5440552869421124	1.08078211083748	-1.450500958126706	-1.450500958142952	-0.09307626972281778	0.001511125132875054	-0.6676601819272	0.4209174327160456	-2.597929108383846e-07	-7.236449412196059e-07	1.40356119384426e-06	7.992818143383681e-08	-2.634509588359566e-07	-9.391651649978748e-07	-2.359235003762962e-07
0.54	-0.2283535885682016	0.0406831852977056	0.8087232140506389	0.895746756003668	-0.3044280980919869	-0.02328071181876975	-0.3065109247442514	0.7321869612353815	0.7321869612352603	-0.1704998100685488	0.1745283303846907	0.2457896130002692	0.0004879990988185522	-0.1383602219603996	-0.02901039909093376	-0.3163025973710694	1.249444091945151	-0.01023417871131913	0.5904497963898362	-0.5963221352854317	1.673697028516061	1.673697028515778	-0.01456360621794145	1.814181766630142e-06	0.6746933396724137	0.1181398921212788	-0.1347459842428885	0.04074872111619582	-0.02651678954959747	-0.242772001948992	0.0009412190244685188	0.04096899755078826	0.1535149067478722	-38.07228615184761	-15.30773577480107	6.813853566540331	9.879506277220052	-619.5508408231249	-58.93864219732757	-25.77902247745644	0.1738914156760114	0.1427175344120665	-0.1701420757563759	-1.116560857097339	0.430445174118127	-0.6205366744998906	1.136265572762801	-1.577517869498534	-1.577517869498536	-0.0212359714348588	-0.00140346817039091	-0.7120208483076051	0.4370422277974766	-2.346799669173272e-07	-6.337588924936287e-07	1.292502514751959e-06	7.524174644790681e-08	-2.349846676509193e-07	-8.365353894877155e-07	-2.150003206803655e-07
0.55	-0.2297282639823525	0.040400279526358	0.8055523788496547	0.908183276669138	-0.3045099262135983	-0.01740707696038608	-0.3124167363703144	0.7488424253027713	0.7488424253026634	-0.1706484080593829	0.1745283179403689	0.2524997560194069	0.00168995768681899	-0.1365650710169137	-0.02756703693837741	-0.3177932608776061	1.237687698726698	-0.006160529503911196	0.5842015856931525	-0.5847677775212726	1.65716823898801	1.65716823898773	-0.01514798430048892	-2.129663189876828e-06	0.6672467697866684	0.1222177896247021	-0.1386324620717321	0.04163799447272577	-0.02659766556743736	-0.2450470498360275	-0.002723672185654486	0.04136915212948235	0.1570780328196506	-39.3598651527659	-15.18179766972531	6.708929873821417	10.29586742260523	-622.3235550644758	-58.71670614363587	-24.78683463156515	0.1837750593481392	0.1457178289928767	-0.1278950873863342	-1.23105517863741	0.391309579684781	-0.6384868994476394	1.175882739027885	-1.724650673043945	-1.724650673043667	-0.0758597056921987	0.0002154543691051274	-0.7742593965511961	0.3880065359141833	-2.1055309703882e-07	-5.420848863671448e-07	1.18443804077487e-06	7.12581009776642e-08	-2.0797599365968e-07	-7.343152850817322e-07	-1.945679158655819e-07
